<svg xmlns="http://www.w3.org/2000/svg" width="500" height="500" viewBox="0 0 500 500" version="1.1"><path d="M 126 147.693 C 94.942 152.913, 71.255 173.708, 61.860 204 C 59.935 210.207, 59.531 213.742, 59.517 224.500 C 59.498 238.700, 60.545 244.333, 65.278 255.500 C 74.887 278.176, 94.215 294.789, 118.090 300.895 C 126.571 303.064, 141.923 303.278, 275 303.080 L 340.500 302.983 344.237 297.181 C 349.603 288.851, 349.993 285.839, 346.194 282.040 C 342.588 278.434, 338.399 278.048, 335.201 281.028 C 331.402 284.567, 331.304 287.820, 334.805 294.239 L 337.947 300 301.723 300.003 C 281.801 300.005, 253.073 300.301, 237.885 300.660 L 210.270 301.313 204.847 295.890 C 201.864 292.907, 196.891 289.141, 193.796 287.521 L 188.169 284.574 194.022 278.318 C 215.011 255.880, 220.918 222.352, 208.762 194.642 C 197.910 169.902, 178.282 154.034, 151.792 148.585 C 144.688 147.124, 131.995 146.685, 126 147.693 M 120.322 156.992 C 106.838 160.526, 95.848 167.096, 86.446 177.244 C 76.146 188.360, 69.212 202.442, 71.213 208.182 C 72.351 211.445, 74.700 213, 78.492 213 C 80.807 213, 80.374 213.559, 74.808 217.758 C 68.500 222.516, 68.500 222.516, 68.201 228.825 C 67.433 244.996, 77.939 267.258, 91.790 278.808 C 101.256 286.703, 113.744 292.811, 123.845 294.487 C 127.783 295.140, 128.486 294.928, 131.345 292.224 C 133.080 290.582, 136.115 288.173, 138.089 286.870 C 148.214 280.184, 149.989 278.528, 149.743 276 C 149.602 274.553, 148.868 273.500, 148 273.500 C 146.999 273.500, 146.584 274.332, 146.753 276 C 146.950 277.950, 146.789 278.170, 146.018 277 C 144.454 274.625, 144.818 273.404, 147.446 272.206 C 151.338 270.433, 157.888 264.047, 160.650 259.334 C 162.047 256.950, 163.530 255, 163.946 255 C 164.361 255, 166.069 257.201, 167.741 259.890 C 170.483 264.301, 179.012 272.171, 182.203 273.234 C 183.188 273.563, 183.205 274.178, 182.281 276.077 C 181.103 278.500, 181.103 278.500, 181.301 276.110 C 181.554 273.070, 179.387 272.205, 178.502 274.993 C 177.813 277.166, 179.414 280, 181.330 280 C 181.927 280, 184.104 278.351, 186.169 276.335 L 189.921 272.671 183.814 266.142 C 180.454 262.551, 176.008 256.986, 173.934 253.776 C 169.973 247.648, 164.367 235.086, 163.371 230.107 C 162.792 227.211, 158.888 224.916, 158.161 227.043 C 157.974 227.589, 157.246 228.611, 156.543 229.314 C 155.839 230.018, 154.917 231.697, 154.493 233.047 C 153.841 235.121, 149.668 240, 148.546 240 C 147.250 240, 153.405 224.315, 155.693 221.787 C 158.851 218.297, 153.654 219.748, 149.132 223.619 C 146.807 225.609, 144.647 226.980, 144.333 226.666 C 144.018 226.351, 145.468 223.710, 147.554 220.797 C 149.640 217.884, 150.729 216.063, 149.974 216.750 C 148.278 218.293, 146.637 218.396, 147.562 216.900 C 147.970 216.239, 147.296 216.319, 145.871 217.101 C 142.627 218.881, 139.693 219.306, 140.582 217.868 C 140.969 217.241, 139.947 217.719, 138.311 218.928 C 136.675 220.138, 134.698 221.233, 133.918 221.362 C 133.138 221.491, 131.488 222.153, 130.250 222.833 C 129.012 223.514, 127.993 223.717, 127.985 223.285 C 127.976 222.853, 127.533 223.175, 127 224 C 126.178 225.272, 126.028 225.225, 126.015 223.691 C 126.005 222.522, 125.568 222.149, 124.777 222.638 C 124.105 223.053, 124.525 221.842, 125.712 219.947 C 126.945 217.976, 129.289 215.989, 131.185 215.306 C 134.200 214.221, 134.274 214.104, 132 214.012 C 129.710 213.920, 129.815 213.745, 133.256 211.929 C 136.134 210.409, 138.388 210.040, 142.895 210.351 C 148.979 210.769, 152.615 209.834, 149.520 208.646 C 148.614 208.299, 148.153 207.561, 148.496 207.007 C 148.838 206.453, 148.379 206, 147.476 206 C 146.572 206, 146.019 205.442, 146.247 204.760 C 146.660 203.520, 143.827 200.803, 141 199.728 C 138.295 198.700, 142.123 198.888, 145.892 199.969 C 147.751 200.502, 148.954 200.615, 148.566 200.219 C 148.178 199.824, 146.068 199.050, 143.877 198.500 C 141.686 197.950, 139.955 197.100, 140.032 196.612 C 140.108 196.123, 139.570 195.343, 138.835 194.877 C 137.756 194.193, 137.750 194.028, 138.809 194.015 C 139.529 194.007, 139.843 193.555, 139.507 193.011 C 139.140 192.418, 139.616 192.293, 140.698 192.699 C 142.341 193.315, 142.368 193.205, 141 191.454 C 139.536 189.581, 139.566 189.576, 142.220 191.271 C 144.807 192.922, 144.908 192.921, 144.283 191.253 C 143.707 189.718, 143.835 189.670, 145.313 190.872 C 146.241 191.627, 147.014 191.852, 147.030 191.372 C 147.047 190.893, 147.504 191.260, 148.046 192.190 C 148.606 193.148, 149.888 193.714, 151.011 193.498 C 152.438 193.223, 153.162 193.797, 153.602 195.551 C 153.938 196.891, 154.615 197.738, 155.107 197.434 C 155.598 197.130, 156 197.385, 156 198 C 156 198.615, 156.516 198.799, 157.146 198.410 C 157.959 197.907, 158.095 198.544, 157.615 200.601 C 157.166 202.526, 157.251 203.031, 157.868 202.105 C 158.618 200.979, 158.871 201.076, 159.179 202.605 C 159.389 203.647, 159.617 201.275, 159.687 197.332 C 159.822 189.646, 160.651 185.666, 161.950 186.469 C 162.394 186.743, 163.039 185.553, 163.385 183.824 C 163.731 182.095, 164.304 180.970, 164.658 181.325 C 165.012 181.679, 165.895 181.188, 166.619 180.234 C 167.830 178.640, 167.939 178.687, 167.968 180.809 C 167.986 182.079, 168.421 182.858, 168.936 182.540 C 169.514 182.182, 169.525 183.170, 168.965 185.123 C 168.466 186.862, 168.296 188.671, 168.588 189.142 C 168.880 189.614, 168.761 190.563, 168.324 191.250 C 167.186 193.042, 167.315 197.864, 168.495 197.667 C 169.042 197.575, 170.235 196.325, 171.146 194.889 C 172.057 193.452, 174.309 191.210, 176.151 189.905 C 179.500 187.533, 179.500 187.533, 177.595 190.516 C 175.700 193.486, 175.700 193.492, 177.676 191.748 C 178.769 190.784, 180.035 190.334, 180.491 190.748 C 180.948 191.162, 181.028 190.988, 180.671 190.363 C 180.314 189.738, 180.778 188.613, 181.703 187.863 C 183.148 186.691, 183.266 186.710, 182.545 188 C 181.863 189.220, 181.958 189.267, 183.053 188.250 C 184.745 186.679, 186.357 186.614, 185.405 188.155 C 184.985 188.834, 185.128 189.039, 185.753 188.653 C 186.337 188.292, 187.869 188.418, 189.158 188.935 C 191.355 189.815, 191.301 189.877, 188.281 189.937 C 185.845 189.985, 185.203 190.365, 185.638 191.500 C 186.063 192.606, 185.464 193.026, 183.357 193.100 C 180.500 193.199, 180.500 193.199, 183 194 C 185.456 194.787, 185.447 194.803, 182.500 194.916 C 180.326 194.999, 179.889 195.277, 180.912 195.925 C 182.021 196.627, 181.861 196.891, 180.167 197.159 C 178.166 197.475, 178.110 197.692, 179.390 200.143 C 180.635 202.527, 180.561 203.015, 178.635 205.132 C 177.461 206.422, 177.153 206.920, 177.950 206.239 C 179.777 204.678, 181.350 204.624, 180.405 206.155 C 179.959 206.876, 180.131 207.037, 180.862 206.585 C 181.506 206.187, 181.786 205.462, 181.484 204.973 C 180.856 203.958, 186.885 200.551, 187.760 201.426 C 188.075 201.742, 187.894 202, 187.358 202 C 186.821 202, 185.509 202.660, 184.441 203.468 C 182.670 204.807, 182.807 204.851, 185.993 203.968 C 190.292 202.777, 190.256 202.776, 189.500 204 C 189.160 204.550, 189.696 205.036, 190.691 205.079 C 191.751 205.125, 191.980 205.368, 191.244 205.664 C 190.553 205.943, 190.242 206.582, 190.553 207.085 C 190.864 207.588, 190.304 208.020, 189.309 208.045 C 188.065 208.076, 188.437 208.549, 190.500 209.560 C 192.150 210.369, 192.649 210.788, 191.609 210.492 C 190.078 210.057, 189.939 210.222, 190.880 211.355 C 191.801 212.465, 191.635 212.862, 190.079 213.269 C 187.753 213.877, 187 213.296, 187 210.892 C 187 209.916, 186.502 208.810, 185.893 208.434 C 185.139 207.968, 185.013 208.467, 185.500 210 C 185.987 211.533, 185.861 212.032, 185.107 211.566 C 184.498 211.190, 183.993 211.471, 183.985 212.191 C 183.974 213.144, 183.702 213.092, 182.985 212 C 182.196 210.799, 181.833 210.759, 181.162 211.797 C 180.491 212.835, 180.066 212.785, 179.039 211.547 C 178.333 210.696, 177.248 210.014, 176.628 210.032 C 176.007 210.049, 176.287 210.661, 177.250 211.392 C 179.876 213.385, 179.395 213.888, 175.250 213.483 C 173.188 213.282, 172.175 213.376, 173 213.693 C 173.825 214.009, 175.119 214.760, 175.875 215.361 C 176.632 215.961, 179.330 216.588, 181.872 216.754 C 188.116 217.162, 192.992 218.615, 196 220.966 C 198.500 222.920, 198.500 222.920, 196 222.446 C 194.476 222.157, 194.863 222.499, 196.991 223.322 C 199.388 224.249, 200.015 224.856, 198.991 225.257 C 197.807 225.722, 197.860 225.858, 199.250 225.921 C 201.232 226.010, 201.671 227.936, 199.750 228.118 C 196.574 228.419, 194.578 227.620, 193.208 225.500 C 191.992 223.617, 191.952 223.646, 192.524 226 C 192.966 227.820, 192.863 228.111, 192.145 227.070 C 191.210 225.713, 189.332 225.167, 184.250 224.774 C 183.012 224.678, 181.993 224.127, 181.985 223.550 C 181.976 222.972, 181.613 223.062, 181.177 223.748 C 180.582 224.685, 179.538 224.373, 176.998 222.498 C 173.013 219.559, 172.061 219.305, 174.300 221.779 C 175.185 222.757, 175.930 224.557, 175.955 225.779 C 175.980 227, 176.023 228.967, 176.051 230.149 C 176.170 235.179, 172.774 234.834, 169.092 229.442 C 167.684 227.380, 166.315 226.285, 165.794 226.806 C 164.738 227.862, 168.748 239.008, 172.465 245.350 C 174.803 249.340, 182.736 256.979, 189 261.273 C 190.375 262.215, 192.477 263.696, 193.672 264.563 C 195.803 266.111, 195.929 265.966, 200.445 256.820 C 206.522 244.510, 208.366 235.606, 207.655 222 C 207.061 210.645, 205.441 204.054, 200.858 194.356 C 192.184 175.997, 172.914 160.631, 153.372 156.491 C 143.786 154.460, 129.133 154.682, 120.322 156.992 M 140 196.387 C 140 196.599, 141.326 196.968, 142.947 197.206 C 144.568 197.443, 145.667 197.270, 145.388 196.819 C 144.893 196.017, 140 195.625, 140 196.387 M 173 199 C 171.910 199.704, 171.858 199.974, 172.809 199.985 C 173.529 199.993, 173.909 200.338, 173.655 200.750 C 173.400 201.162, 174.273 201.500, 175.595 201.500 C 178.638 201.500, 178.783 200.024, 175.750 199.930 C 173.603 199.863, 173.592 199.820, 175.500 199 C 176.819 198.433, 176.989 198.122, 176 198.086 C 175.175 198.055, 173.825 198.467, 173 199 M 180.516 199.975 C 179.727 201.250, 181.365 202.011, 182.882 201.073 C 183.886 200.452, 183.828 200.148, 182.616 199.683 C 181.762 199.355, 180.817 199.487, 180.516 199.975 M 99.989 230.487 C 101.439 232.234, 100.590 235.223, 98.763 234.804 C 96.678 234.327, 88.497 239.660, 85.710 243.314 C 83.782 245.841, 82.069 246.893, 79.110 247.366 C 74.012 248.182, 73.089 249.641, 77.113 250.525 C 78.984 250.936, 80.444 251.982, 80.744 253.127 C 81.136 254.627, 81.543 254.794, 82.622 253.899 C 83.380 253.270, 84 252.007, 84 251.093 C 84 247.462, 96.611 242.711, 103.680 243.680 C 108.175 244.296, 109.676 245.989, 105.750 246.015 C 103.931 246.028, 103.787 246.216, 105 247 C 105.825 247.533, 107.820 247.976, 109.434 247.985 C 112.501 248.001, 120.995 251.606, 122.196 253.402 C 123.537 255.408, 123.826 253.453, 122.912 248.558 C 121.851 242.881, 119.364 239.817, 113 236.351 C 110.525 235.002, 106.700 232.804, 104.500 231.466 C 99.944 228.695, 98.185 228.313, 99.989 230.487 M 160.247 268.960 C 156.346 273.504, 157.178 274.714, 164.225 274.744 C 170.807 274.773, 171.584 273.305, 167.405 268.745 C 165.518 266.685, 163.867 265.038, 163.737 265.085 C 163.606 265.131, 162.036 266.875, 160.247 268.960 M 338.750 284.082 C 336.377 285.461, 336.516 289.671, 338.977 290.988 C 340.554 291.832, 341.378 291.622, 343.050 289.950 C 344.919 288.081, 344.994 287.623, 343.738 285.732 C 341.998 283.111, 340.992 282.778, 338.750 284.082 M 58.329 314.458 C 54.723 316.026, 53 318.648, 53 322.566 C 53 325.399, 56.590 329.365, 66.795 337.805 C 70.795 341.115, 72 342.756, 72 344.900 C 72 348.758, 69.163 351, 64.282 351 C 59.263 351, 56.382 348.790, 54.506 343.500 C 53.088 339.500, 53.088 339.500, 53.044 345 C 53.002 350.310, 53.095 350.505, 55.750 350.645 C 57.263 350.725, 60.075 351.200, 62 351.701 C 66.789 352.946, 73.047 351.660, 75.214 348.984 C 77.307 346.399, 77.571 340.163, 75.695 337.598 C 74.978 336.617, 71.267 333.484, 67.449 330.637 C 59.669 324.834, 57.475 321.512, 58.917 317.719 C 60.111 314.577, 64.037 313.571, 68.242 315.328 C 71.401 316.649, 73.435 319.378, 74.332 323.500 C 74.572 324.600, 74.820 323.152, 74.884 320.281 C 74.971 316.371, 74.673 315.188, 73.697 315.563 C 72.981 315.838, 70.745 315.374, 68.729 314.531 C 64.287 312.675, 62.457 312.662, 58.329 314.458 M 230.467 314.130 C 235.794 315.377, 238.738 318.377, 240.518 324.373 C 243.408 334.105, 241.886 343.314, 236.497 348.703 C 232.549 352.651, 232.947 352.807, 238.565 349.515 C 243.702 346.504, 248.012 338.739, 247.978 332.554 C 247.922 322.119, 238.423 312.635, 228.500 313.106 C 227.400 313.158, 228.285 313.619, 230.467 314.130 M 374.843 313.975 C 369.426 315.611, 365.914 318.531, 363.474 323.427 C 359.562 331.279, 360.554 341.535, 365.786 347.316 C 370.749 352.800, 380.596 353.857, 387.034 349.596 C 392.053 346.275, 393.763 346.311, 394.284 349.750 C 394.513 351.262, 394.768 348.150, 394.850 342.833 C 394.954 336.154, 395.386 333.011, 396.250 332.662 C 396.938 332.385, 395.025 332.158, 392 332.158 C 388.975 332.158, 387.063 332.385, 387.750 332.662 C 389.623 333.418, 389.388 345.001, 387.443 347.777 C 385.515 350.530, 379.190 350.816, 374.999 348.340 C 366.169 343.124, 364.381 324.800, 371.989 317.510 C 374.499 315.106, 375.858 314.615, 380.009 314.615 C 385.870 314.615, 389.608 316.893, 392.248 322.071 C 393.997 325.500, 393.997 325.500, 393.998 320.183 C 394 315.481, 393.788 314.933, 392.167 315.447 C 391.158 315.767, 388.402 315.347, 386.041 314.514 C 381.361 312.863, 378.912 312.745, 374.843 313.975 M 83.800 315.200 C 84.638 316.038, 85 321.474, 85 333.232 C 85 349.753, 84.958 350.081, 82.750 350.969 C 81.093 351.635, 82.346 351.869, 87.500 351.858 C 91.350 351.849, 93.825 351.585, 93 351.271 C 92.175 350.957, 91.169 350.205, 90.765 349.600 C 89.623 347.890, 89.862 318.127, 91.035 315.934 C 91.991 314.148, 91.707 314, 87.335 314 C 83.652 314, 82.867 314.267, 83.800 315.200 M 99.750 314.662 C 100.683 315.039, 101 319.576, 101 332.534 C 101 348.019, 100.810 350.011, 99.250 350.920 C 96.322 352.625, 115.804 352.247, 121.743 350.484 C 130.390 347.916, 134.584 340.748, 133.798 329.881 C 133.525 326.112, 132.649 322.982, 131.377 321.237 C 128.964 317.924, 121.530 313.956, 118.038 314.116 C 116.009 314.209, 115.893 314.332, 117.458 314.729 C 124.433 316.501, 128.306 322.762, 128.379 332.381 C 128.472 344.830, 122.651 351.473, 112.235 350.804 L 107.500 350.500 107.227 332.828 C 106.977 316.619, 107.101 315.117, 108.727 314.694 C 109.702 314.440, 107.800 314.215, 104.500 314.195 C 101.200 314.175, 99.063 314.385, 99.750 314.662 M 151 316 C 152.100 317.100, 153.056 318.450, 153.125 319 C 153.361 320.887, 153.573 321.504, 154.672 323.500 C 156.681 327.149, 165 348.071, 165 349.474 C 165 350.233, 164.213 351.059, 163.250 351.311 C 162.287 351.562, 164.875 351.792, 169 351.821 C 174.539 351.859, 175.898 351.632, 174.199 350.950 C 171.771 349.976, 169.067 344.619, 160.973 324.750 C 156.594 314, 156.594 314, 152.797 314 C 149 314, 149 314, 151 316 M 180.750 314.662 C 181.683 315.039, 182 319.576, 182 332.534 C 182 348.019, 181.810 350.011, 180.250 350.920 C 178.941 351.683, 180.137 351.918, 185 351.854 C 188.575 351.807, 190.713 351.562, 189.750 351.311 C 188.166 350.897, 188 349.163, 188 333.010 C 188 319.671, 188.316 315.039, 189.250 314.662 C 189.938 314.385, 188.025 314.158, 185 314.158 C 181.975 314.158, 180.063 314.385, 180.750 314.662 M 219.337 316.514 C 212.245 320.765, 208.828 332.121, 212.064 340.685 C 213.367 344.134, 217.575 348.695, 221.200 350.589 C 225.618 352.897, 226.299 352.201, 222.707 349.048 C 218.665 345.498, 216.992 340.450, 217.022 331.884 C 217.047 324.640, 219.466 318.188, 223.114 315.633 C 226.749 313.086, 223.975 313.734, 219.337 316.514 M 254.750 314.662 C 255.684 315.039, 256 319.671, 256 333.010 C 256 349.163, 255.834 350.897, 254.250 351.311 C 253.287 351.562, 258.856 351.820, 266.625 351.884 C 280.750 352, 280.750 352, 281.327 349.117 C 281.644 347.531, 282.192 344.943, 282.544 343.367 C 283.185 340.500, 283.185 340.500, 281.205 343.589 C 277.525 349.330, 274.255 351.122, 268.059 350.794 L 262.500 350.500 262.226 333.074 C 262.017 319.802, 262.255 315.455, 263.226 314.839 C 263.958 314.375, 262.160 314.058, 259 314.094 C 255.975 314.129, 254.063 314.385, 254.750 314.662 M 289.750 314.662 C 290.683 315.039, 291 319.576, 291 332.534 C 291 348.019, 290.810 350.011, 289.250 350.920 C 288.001 351.648, 291.540 351.948, 301.625 351.970 C 315.750 352, 315.750 352, 316.327 349.117 C 316.644 347.531, 317.192 344.943, 317.544 343.367 C 318.185 340.500, 318.185 340.500, 316.205 343.589 C 312.525 349.330, 309.255 351.122, 303.059 350.794 L 297.500 350.500 297.226 333.227 C 296.955 316.077, 296.969 315.947, 299.226 315.040 C 300.942 314.351, 299.903 314.131, 295 314.142 C 291.425 314.151, 289.063 314.385, 289.750 314.662 M 311.750 315.491 C 313.538 316.268, 315 317.450, 315 318.118 C 315 318.787, 315.207 319.126, 315.460 318.873 C 315.714 318.620, 315.661 317.420, 315.344 316.206 C 314.900 314.511, 314.041 314.009, 311.633 314.039 C 308.500 314.078, 308.500 314.078, 311.750 315.491 M 326.849 316.852 C 328.307 318.421, 334.675 326.995, 341 335.906 C 352.500 352.108, 352.500 352.108, 352.802 347.068 C 353.027 343.299, 352.649 341.534, 351.302 340.072 C 350.311 338.996, 345.675 332.707, 341 326.095 C 332.500 314.074, 332.500 314.074, 328.349 314.037 C 324.198 314, 324.198 314, 326.849 316.852 M 351.972 318.750 C 352.458 323.500, 352.458 323.500, 352.803 319.513 C 352.993 317.320, 353.678 315.190, 354.324 314.778 C 355.069 314.305, 354.764 314.025, 353.493 314.015 C 351.695 314.002, 351.536 314.496, 351.972 318.750 M 306.750 330.083 C 305.080 331.913, 305.091 332.091, 307 334 C 309 336, 309 336, 309 332 C 309 329.800, 308.887 328.038, 308.750 328.083 C 308.613 328.129, 307.712 329.029, 306.750 330.083 M 140.286 349.750 C 138.071 352, 138.071 352, 141.786 351.985 C 143.829 351.976, 144.990 351.639, 144.366 351.235 C 143.742 350.831, 143.067 349.825, 142.866 349 C 142.574 347.804, 142.052 347.955, 140.286 349.750 M 327 349.804 C 327 350.381, 326.212 351.059, 325.250 351.311 C 324.288 351.562, 325.525 351.785, 328 351.805 C 330.475 351.825, 331.825 351.592, 331 351.287 C 330.175 350.981, 328.938 350.287, 328.250 349.743 C 327.416 349.084, 327 349.105, 327 349.804" stroke="none" fill="#17110d" fill-rule="evenodd"/><path d="M 120.322 156.992 C 106.838 160.526, 95.848 167.096, 86.446 177.244 C 76.146 188.360, 69.212 202.442, 71.213 208.182 C 72.351 211.445, 74.700 213, 78.492 213 C 80.807 213, 80.374 213.559, 74.808 217.758 C 68.500 222.516, 68.500 222.516, 68.201 228.825 C 67.433 244.996, 77.939 267.258, 91.790 278.808 C 101.256 286.703, 113.744 292.811, 123.845 294.487 C 127.783 295.140, 128.486 294.928, 131.345 292.224 C 133.080 290.582, 136.115 288.173, 138.089 286.870 C 148.214 280.184, 149.989 278.528, 149.743 276 C 149.602 274.553, 148.868 273.500, 148 273.500 C 146.999 273.500, 146.584 274.332, 146.753 276 C 146.950 277.950, 146.789 278.170, 146.018 277 C 144.454 274.625, 144.818 273.404, 147.446 272.206 C 151.338 270.433, 157.888 264.047, 160.650 259.334 C 162.047 256.950, 163.530 255, 163.946 255 C 164.361 255, 166.069 257.201, 167.741 259.890 C 170.483 264.301, 179.012 272.171, 182.203 273.234 C 183.188 273.563, 183.205 274.178, 182.281 276.077 C 181.103 278.500, 181.103 278.500, 181.301 276.110 C 181.554 273.070, 179.387 272.205, 178.502 274.993 C 177.813 277.166, 179.414 280, 181.330 280 C 181.927 280, 184.104 278.351, 186.169 276.335 L 189.921 272.671 183.814 266.142 C 180.454 262.551, 176.008 256.986, 173.934 253.776 C 169.973 247.648, 164.367 235.086, 163.371 230.107 C 162.792 227.211, 158.888 224.916, 158.161 227.043 C 157.974 227.589, 157.246 228.611, 156.543 229.314 C 155.839 230.018, 154.917 231.697, 154.493 233.047 C 153.841 235.121, 149.668 240, 148.546 240 C 147.250 240, 153.405 224.315, 155.693 221.787 C 158.851 218.297, 153.654 219.748, 149.132 223.619 C 146.807 225.609, 144.647 226.980, 144.333 226.666 C 144.018 226.351, 145.468 223.710, 147.554 220.797 C 149.640 217.884, 150.729 216.063, 149.974 216.750 C 148.278 218.293, 146.637 218.396, 147.562 216.900 C 147.970 216.239, 147.296 216.319, 145.871 217.101 C 142.627 218.881, 139.693 219.306, 140.582 217.868 C 140.969 217.241, 139.947 217.719, 138.311 218.928 C 136.675 220.138, 134.698 221.233, 133.918 221.362 C 133.138 221.491, 131.488 222.153, 130.250 222.833 C 129.012 223.514, 127.993 223.717, 127.985 223.285 C 127.976 222.853, 127.533 223.175, 127 224 C 126.178 225.272, 126.028 225.225, 126.015 223.691 C 126.005 222.522, 125.568 222.149, 124.777 222.638 C 124.105 223.053, 124.525 221.842, 125.712 219.947 C 126.945 217.976, 129.289 215.989, 131.185 215.306 C 134.200 214.221, 134.274 214.104, 132 214.012 C 129.710 213.920, 129.815 213.745, 133.256 211.929 C 136.134 210.409, 138.388 210.040, 142.895 210.351 C 148.979 210.769, 152.615 209.834, 149.520 208.646 C 148.614 208.299, 148.153 207.561, 148.496 207.007 C 148.838 206.453, 148.379 206, 147.476 206 C 146.572 206, 146.019 205.442, 146.247 204.760 C 146.660 203.520, 143.827 200.803, 141 199.728 C 138.295 198.700, 142.123 198.888, 145.892 199.969 C 147.751 200.502, 148.954 200.615, 148.566 200.219 C 148.178 199.824, 146.068 199.050, 143.877 198.500 C 141.686 197.950, 139.955 197.100, 140.032 196.612 C 140.108 196.123, 139.570 195.343, 138.835 194.877 C 137.756 194.193, 137.750 194.028, 138.809 194.015 C 139.529 194.007, 139.843 193.555, 139.507 193.011 C 139.140 192.418, 139.616 192.293, 140.698 192.699 C 142.341 193.315, 142.368 193.205, 141 191.454 C 139.536 189.581, 139.566 189.576, 142.220 191.271 C 144.807 192.922, 144.908 192.921, 144.283 191.253 C 143.707 189.718, 143.835 189.670, 145.313 190.872 C 146.241 191.627, 147.014 191.852, 147.030 191.372 C 147.047 190.893, 147.504 191.260, 148.046 192.190 C 148.606 193.148, 149.888 193.714, 151.011 193.498 C 152.438 193.223, 153.162 193.797, 153.602 195.551 C 153.938 196.891, 154.615 197.738, 155.107 197.434 C 155.598 197.130, 156 197.385, 156 198 C 156 198.615, 156.516 198.799, 157.146 198.410 C 157.959 197.907, 158.095 198.544, 157.615 200.601 C 157.166 202.526, 157.251 203.031, 157.868 202.105 C 158.618 200.979, 158.871 201.076, 159.179 202.605 C 159.389 203.647, 159.617 201.275, 159.687 197.332 C 159.822 189.646, 160.651 185.666, 161.950 186.469 C 162.394 186.743, 163.039 185.553, 163.385 183.824 C 163.731 182.095, 164.304 180.970, 164.658 181.325 C 165.012 181.679, 165.895 181.188, 166.619 180.234 C 167.830 178.640, 167.939 178.687, 167.968 180.809 C 167.986 182.079, 168.421 182.858, 168.936 182.540 C 169.514 182.182, 169.525 183.170, 168.965 185.123 C 168.466 186.862, 168.296 188.671, 168.588 189.142 C 168.880 189.614, 168.761 190.563, 168.324 191.250 C 167.186 193.042, 167.315 197.864, 168.495 197.667 C 169.042 197.575, 170.235 196.325, 171.146 194.889 C 172.057 193.452, 174.309 191.210, 176.151 189.905 C 179.500 187.533, 179.500 187.533, 177.595 190.516 C 175.700 193.486, 175.700 193.492, 177.676 191.748 C 178.769 190.784, 180.035 190.334, 180.491 190.748 C 180.948 191.162, 181.028 190.988, 180.671 190.363 C 180.314 189.738, 180.778 188.613, 181.703 187.863 C 183.148 186.691, 183.266 186.710, 182.545 188 C 181.863 189.220, 181.958 189.267, 183.053 188.250 C 184.745 186.679, 186.357 186.614, 185.405 188.155 C 184.985 188.834, 185.128 189.039, 185.753 188.653 C 186.337 188.292, 187.869 188.418, 189.158 188.935 C 191.355 189.815, 191.301 189.877, 188.281 189.937 C 185.845 189.985, 185.203 190.365, 185.638 191.500 C 186.063 192.606, 185.464 193.026, 183.357 193.100 C 180.500 193.199, 180.500 193.199, 183 194 C 185.456 194.787, 185.447 194.803, 182.500 194.916 C 180.326 194.999, 179.889 195.277, 180.912 195.925 C 182.021 196.627, 181.861 196.891, 180.167 197.159 C 178.166 197.475, 178.110 197.692, 179.390 200.143 C 180.635 202.527, 180.561 203.015, 178.635 205.132 C 177.461 206.422, 177.153 206.920, 177.950 206.239 C 179.777 204.678, 181.350 204.624, 180.405 206.155 C 179.959 206.876, 180.131 207.037, 180.862 206.585 C 181.506 206.187, 181.786 205.462, 181.484 204.973 C 180.856 203.958, 186.885 200.551, 187.760 201.426 C 188.075 201.742, 187.894 202, 187.358 202 C 186.821 202, 185.509 202.660, 184.441 203.468 C 182.670 204.807, 182.807 204.851, 185.993 203.968 C 190.292 202.777, 190.256 202.776, 189.500 204 C 189.160 204.550, 189.696 205.036, 190.691 205.079 C 191.751 205.125, 191.980 205.368, 191.244 205.664 C 190.553 205.943, 190.242 206.582, 190.553 207.085 C 190.864 207.588, 190.304 208.020, 189.309 208.045 C 188.065 208.076, 188.437 208.549, 190.500 209.560 C 192.150 210.369, 192.649 210.788, 191.609 210.492 C 190.078 210.057, 189.939 210.222, 190.880 211.355 C 191.801 212.465, 191.635 212.862, 190.079 213.269 C 187.753 213.877, 187 213.296, 187 210.892 C 187 209.916, 186.502 208.810, 185.893 208.434 C 185.139 207.968, 185.013 208.467, 185.500 210 C 185.987 211.533, 185.861 212.032, 185.107 211.566 C 184.498 211.190, 183.993 211.471, 183.985 212.191 C 183.974 213.144, 183.702 213.092, 182.985 212 C 182.196 210.799, 181.833 210.759, 181.162 211.797 C 180.491 212.835, 180.066 212.785, 179.039 211.547 C 178.333 210.696, 177.248 210.014, 176.628 210.032 C 176.007 210.049, 176.287 210.661, 177.250 211.392 C 179.876 213.385, 179.395 213.888, 175.250 213.483 C 173.188 213.282, 172.175 213.376, 173 213.693 C 173.825 214.009, 175.119 214.760, 175.875 215.361 C 176.632 215.961, 179.330 216.588, 181.872 216.754 C 188.116 217.162, 192.992 218.615, 196 220.966 C 198.500 222.920, 198.500 222.920, 196 222.446 C 194.476 222.157, 194.863 222.499, 196.991 223.322 C 199.388 224.249, 200.015 224.856, 198.991 225.257 C 197.807 225.722, 197.860 225.858, 199.250 225.921 C 201.232 226.010, 201.671 227.936, 199.750 228.118 C 196.574 228.419, 194.578 227.620, 193.208 225.500 C 191.992 223.617, 191.952 223.646, 192.524 226 C 192.966 227.820, 192.863 228.111, 192.145 227.070 C 191.210 225.713, 189.332 225.167, 184.250 224.774 C 183.012 224.678, 181.993 224.127, 181.985 223.550 C 181.976 222.972, 181.613 223.062, 181.177 223.748 C 180.582 224.685, 179.538 224.373, 176.998 222.498 C 173.013 219.559, 172.061 219.305, 174.300 221.779 C 175.185 222.757, 175.930 224.557, 175.955 225.779 C 175.980 227, 176.023 228.967, 176.051 230.149 C 176.170 235.179, 172.774 234.834, 169.092 229.442 C 167.684 227.380, 166.315 226.285, 165.794 226.806 C 164.738 227.862, 168.748 239.008, 172.465 245.350 C 174.803 249.340, 182.736 256.979, 189 261.273 C 190.375 262.215, 192.477 263.696, 193.672 264.563 C 195.803 266.111, 195.929 265.966, 200.445 256.820 C 206.522 244.510, 208.366 235.606, 207.655 222 C 207.061 210.645, 205.441 204.054, 200.858 194.356 C 192.184 175.997, 172.914 160.631, 153.372 156.491 C 143.786 154.460, 129.133 154.682, 120.322 156.992 M 140 196.387 C 140 196.599, 141.326 196.968, 142.947 197.206 C 144.568 197.443, 145.667 197.270, 145.388 196.819 C 144.893 196.017, 140 195.625, 140 196.387 M 173 199 C 171.910 199.704, 171.858 199.974, 172.809 199.985 C 173.529 199.993, 173.909 200.338, 173.655 200.750 C 173.400 201.162, 174.273 201.500, 175.595 201.500 C 178.638 201.500, 178.783 200.024, 175.750 199.930 C 173.603 199.863, 173.592 199.820, 175.500 199 C 176.819 198.433, 176.989 198.122, 176 198.086 C 175.175 198.055, 173.825 198.467, 173 199 M 180.516 199.975 C 179.727 201.250, 181.365 202.011, 182.882 201.073 C 183.886 200.452, 183.828 200.148, 182.616 199.683 C 181.762 199.355, 180.817 199.487, 180.516 199.975 M 99.989 230.487 C 101.439 232.234, 100.590 235.223, 98.763 234.804 C 96.678 234.327, 88.497 239.660, 85.710 243.314 C 83.782 245.841, 82.069 246.893, 79.110 247.366 C 74.012 248.182, 73.089 249.641, 77.113 250.525 C 78.984 250.936, 80.444 251.982, 80.744 253.127 C 81.136 254.627, 81.543 254.794, 82.622 253.899 C 83.380 253.270, 84 252.007, 84 251.093 C 84 247.462, 96.611 242.711, 103.680 243.680 C 108.175 244.296, 109.676 245.989, 105.750 246.015 C 103.931 246.028, 103.787 246.216, 105 247 C 105.825 247.533, 107.820 247.976, 109.434 247.985 C 112.501 248.001, 120.995 251.606, 122.196 253.402 C 123.537 255.408, 123.826 253.453, 122.912 248.558 C 121.851 242.881, 119.364 239.817, 113 236.351 C 110.525 235.002, 106.700 232.804, 104.500 231.466 C 99.944 228.695, 98.185 228.313, 99.989 230.487 M 160.247 268.960 C 156.346 273.504, 157.178 274.714, 164.225 274.744 C 170.807 274.773, 171.584 273.305, 167.405 268.745 C 165.518 266.685, 163.867 265.038, 163.737 265.085 C 163.606 265.131, 162.036 266.875, 160.247 268.960 M 338.750 284.082 C 336.377 285.461, 336.516 289.671, 338.977 290.988 C 340.554 291.832, 341.378 291.622, 343.050 289.950 C 344.919 288.081, 344.994 287.623, 343.738 285.732 C 341.998 283.111, 340.992 282.778, 338.750 284.082 M 207.872 299.250 C 209.104 300.820, 211.158 300.977, 227.872 300.774 L 246.500 300.548 228.074 300.251 C 215.451 300.047, 209.153 299.567, 208.074 298.727 C 206.686 297.645, 206.662 297.706, 207.872 299.250 M 151.186 303.748 C 160.363 303.913, 175.663 303.913, 185.186 303.749 C 194.709 303.584, 187.200 303.449, 168.500 303.449 C 149.800 303.449, 142.009 303.583, 151.186 303.748 M 242.250 303.750 C 260.262 303.902, 289.738 303.902, 307.750 303.750 C 325.762 303.597, 311.025 303.472, 275 303.472 C 238.975 303.472, 224.238 303.597, 242.250 303.750 M 81 313.750 C 81 314.163, 83.925 314.500, 87.500 314.500 C 91.075 314.500, 94 314.163, 94 313.750 C 94 313.337, 91.075 313, 87.500 313 C 83.925 313, 81 313.337, 81 313.750 M 97.661 313.750 C 97.410 314.163, 101.424 314.555, 106.582 314.622 C 111.740 314.689, 115.717 314.351, 115.421 313.872 C 114.764 312.809, 98.303 312.696, 97.661 313.750 M 147 313.905 C 147 314.720, 154.909 314.239, 155.917 313.362 C 156.146 313.163, 154.233 313, 151.667 313 C 149.100 313, 147 313.407, 147 313.905 M 178.654 313.750 C 178.398 314.163, 181.070 314.500, 184.592 314.500 C 188.113 314.500, 190.996 314.163, 190.997 313.750 C 190.999 313.337, 188.327 313, 185.059 313 C 181.791 313, 178.909 313.337, 178.654 313.750 M 252.654 313.750 C 252.398 314.163, 255.070 314.500, 258.592 314.500 C 262.113 314.500, 264.996 314.163, 264.997 313.750 C 264.999 313.337, 262.327 313, 259.059 313 C 255.791 313, 252.909 313.337, 252.654 313.750 M 287.655 313.750 C 287.057 314.719, 312.631 314.703, 313.600 313.733 C 314.003 313.330, 308.435 313, 301.226 313 C 294.016 313, 287.910 313.337, 287.655 313.750 M 322 313.877 C 322 314.679, 330.950 314.218, 331.917 313.367 C 332.146 313.165, 330.008 313, 327.167 313 C 324.325 313, 322 313.395, 322 313.877 M 349 313.773 C 349 314.198, 350.800 314.545, 353 314.545 C 355.200 314.545, 357 314.198, 357 313.773 C 357 313.348, 355.200 313, 353 313 C 350.800 313, 349 313.348, 349 313.773 M 72.186 315.055 C 70.275 315.821, 69.855 318, 71.618 318 C 71.893 318, 71.872 317.601, 71.570 317.114 C 71.269 316.626, 71.957 315.983, 73.100 315.684 C 75.040 315.177, 75.155 315.494, 74.838 320.477 C 74.652 323.412, 74.838 325.604, 75.250 325.348 C 75.662 325.092, 76 322.434, 76 319.441 C 76 313.719, 75.875 313.575, 72.186 315.055 M 84.411 333 C 84.411 342.625, 84.561 346.563, 84.745 341.750 C 84.928 336.938, 84.928 329.063, 84.745 324.250 C 84.561 319.438, 84.411 323.375, 84.411 333 M 90.407 333 C 90.407 342.075, 90.559 345.788, 90.744 341.250 C 90.929 336.712, 90.929 329.288, 90.744 324.750 C 90.559 320.212, 90.407 323.925, 90.407 333 M 327.100 332.691 C 327.039 342.517, 327.393 349.125, 328 349.500 C 329.209 350.247, 329.209 322.775, 328 319 C 327.522 317.507, 327.159 323.024, 327.100 332.691 M 308.900 323.250 C 308.307 324.737, 308.557 341, 309.173 341 C 309.628 341, 310 336.950, 310 332 C 310 327.050, 309.775 323, 309.500 323 C 309.225 323, 308.955 323.113, 308.900 323.250 M 367.300 331 C 367.300 334.025, 367.487 335.262, 367.716 333.750 C 367.945 332.238, 367.945 329.762, 367.716 328.250 C 367.487 326.738, 367.300 327.975, 367.300 331 M 241.310 333.500 C 241.315 336.800, 241.502 338.029, 241.725 336.232 C 241.947 334.435, 241.943 331.735, 241.715 330.232 C 241.486 328.729, 241.304 330.200, 241.310 333.500 M 134.232 332 C 134.232 333.925, 134.438 334.712, 134.689 333.750 C 134.941 332.788, 134.941 331.212, 134.689 330.250 C 134.438 329.288, 134.232 330.075, 134.232 332 M 210.272 333 C 210.272 335.475, 210.467 336.488, 210.706 335.250 C 210.944 334.012, 210.944 331.988, 210.706 330.750 C 210.467 329.512, 210.272 330.525, 210.272 333 M 128.232 333 C 128.232 334.925, 128.438 335.712, 128.689 334.750 C 128.941 333.788, 128.941 332.212, 128.689 331.250 C 128.438 330.288, 128.232 331.075, 128.232 333 M 351.843 335.501 C 351.654 338.527, 351.837 341.002, 352.250 341.001 C 352.663 341.001, 353 338.525, 353 335.500 C 353 328.401, 352.285 328.402, 351.843 335.501 M 297 332 C 297 332.550, 298.800 333, 301 333 C 303.200 333, 305 332.550, 305 332 C 305 331.450, 303.200 331, 301 331 C 298.800 331, 297 331.450, 297 332 M 385 331.750 C 385 332.163, 388.107 332.500, 391.905 332.500 C 395.702 332.500, 398.600 332.163, 398.345 331.750 C 398.091 331.337, 394.984 331, 391.441 331 C 387.898 331, 385 331.337, 385 331.750 M 52 344.500 C 52 351.475, 52.879 353.623, 54.595 350.845 C 55.066 350.084, 54.866 349.965, 54.010 350.494 C 52.973 351.135, 52.813 349.851, 53.221 344.149 C 53.503 340.217, 53.343 337, 52.866 337 C 52.390 337, 52 340.375, 52 344.500 M 146.733 338.750 C 147.053 339.583, 149.516 340, 154.107 340 C 158.956 340, 160.999 339.629, 160.998 338.750 C 160.996 337.863, 158.853 337.500, 153.624 337.500 C 148.137 337.500, 146.376 337.820, 146.733 338.750 M 225.500 352 C 225.127 352.604, 226.490 353, 228.941 353 C 231.173 353, 233 352.550, 233 352 C 233 351.450, 231.452 351, 229.559 351 C 227.666 351, 225.840 351.450, 225.500 352" stroke="none" fill="#f4a63d" fill-rule="evenodd"/></svg>